<svg width="20" height="19" viewBox="0 0 20 19" fill="none" xmlns="http://www.w3.org/2000/svg">
<path d="M12.4634 12.3781H-0.333496V1.98499C-0.333496 1.25769 0.257568 0.666626 0.984863 0.666626H12.4634V12.3781ZM19.2881 5.91589H13.4478V0.666626H18.0356C18.7629 0.666626 19.354 1.25769 19.354 1.98499V5.84998C19.354 5.88733 19.3254 5.91589 19.2881 5.91589ZM19.2881 12.3781H13.4478V7.12659H19.2881C19.3254 7.12659 19.354 7.15515 19.354 7.19251V12.3099C19.354 12.3473 19.3254 12.3781 19.2881 12.3781ZM18.0356 18.838H13.4478V13.5887H19.354V17.5197C19.354 18.2491 18.7629 18.838 18.0356 18.838ZM5.57275 18.838H0.984863C0.257568 18.838 -0.333496 18.2469 -0.333496 17.5197V13.5887H5.57275V18.838ZM6.55713 13.5887H12.4634V18.838H6.55713V13.5887Z" fill="#2D5FE7"/>
<path d="M12.4634 12.3781H-0.333496V1.98499C-0.333496 1.25769 0.257568 0.666626 0.984863 0.666626H12.4634V12.3781ZM19.2881 5.91589H13.4478V0.666626H18.0356C18.7629 0.666626 19.354 1.25769 19.354 1.98499V5.84998C19.354 5.88733 19.3254 5.91589 19.2881 5.91589ZM19.2881 12.3781H13.4478V7.12659H19.2881C19.3254 7.12659 19.354 7.15515 19.354 7.19251V12.3099C19.354 12.3473 19.3254 12.3781 19.2881 12.3781ZM18.0356 18.838H13.4478V13.5887H19.354V17.5197C19.354 18.2491 18.7629 18.838 18.0356 18.838ZM5.57275 18.838H0.984863C0.257568 18.838 -0.333496 18.2469 -0.333496 17.5197V13.5887H5.57275V18.838ZM6.55713 13.5887H12.4634V18.838H6.55713V13.5887Z" fill="url(#paint0_linear_81_136)"/>
<defs>
<linearGradient id="paint0_linear_81_136" x1="9.51025" y1="0.666626" x2="9.51025" y2="18.838" gradientUnits="userSpaceOnUse">
<stop stop-color="white" stop-opacity="0.3"/>
<stop offset="1" stop-color="white" stop-opacity="0"/>
</linearGradient>
</defs>
</svg>
