<svg width="58" height="58" viewBox="0 0 58 58" fill="none" xmlns="http://www.w3.org/2000/svg">
<g clip-path="url(#clip0_81_141)">
<path d="M29 0C44.95 0 58 13.05 58 29C58 44.95 44.95 58 29 58C13.05 58 0 44.95 0 29C0 13.05 13.05 0 29 0Z" fill="#EDEDED"/>
<path d="M32.9839 39.5124C36.3874 39.5236 39.6794 40.7273 42.2875 42.9141C44.8955 45.101 46.6547 48.1327 47.2591 51.4822C42.3442 55.5012 36.2411 57.787 29.8954 57.9854L28.9964 57.9999C22.3377 58.0012 15.8838 55.6983 10.73 51.4822C11.3345 48.1321 13.0942 45.0999 15.703 42.913C18.3118 40.7261 21.6047 39.5228 25.0089 39.5124H32.9839ZM28.9964 12.325C35.8839 12.325 41.3214 17.7625 41.3214 24.65C41.3214 31.5374 35.8839 37.3374 28.9964 37.3374C22.1089 37.3374 16.6714 31.8999 16.6714 25.0124C16.6714 18.125 22.1089 12.325 28.9964 12.325Z" fill="#D8D8D8"/>
</g>
<defs>
<clipPath id="clip0_81_141">
<rect width="58" height="58" rx="29" fill="white"/>
</clipPath>
</defs>
</svg>
