<svg width="166" height="166" viewBox="0 0 166 166" fill="none" xmlns="http://www.w3.org/2000/svg">
<path d="M83 0C128.65 0 166 37.35 166 83C166 128.65 128.65 166 83 166C37.35 166 0 128.65 0 83C0 37.35 37.35 0 83 0Z" fill="#6991FF"/>
<path d="M94.4016 113.087C104.143 113.119 113.565 116.564 121.029 122.823C128.494 129.082 133.528 137.759 135.258 147.346C121.192 158.848 103.724 165.39 85.5621 165.958L82.9891 166C63.9316 166.003 45.4601 159.412 30.7095 147.346C32.4396 137.757 37.476 129.079 44.9426 122.82C52.4092 116.561 61.8336 113.117 71.5766 113.087H94.4016ZM82.9891 35.2749C102.702 35.2749 118.264 50.8374 118.264 70.5499C118.264 90.2624 102.702 106.862 82.9891 106.862C63.2766 106.862 47.7141 91.2999 47.7141 71.5874C47.7141 51.8749 63.2766 35.2749 82.9891 35.2749Z" fill="#A6BBF5"/>
<path d="M94.4016 113.087C104.143 113.119 113.565 116.564 121.029 122.823C128.494 129.082 133.528 137.759 135.258 147.346C121.192 158.848 103.724 165.39 85.5621 165.958L82.9891 166C63.9316 166.003 45.4601 159.412 30.7095 147.346C32.4396 137.757 37.476 129.079 44.9426 122.82C52.4092 116.561 61.8336 113.117 71.5766 113.087H94.4016ZM82.9891 35.2749C102.702 35.2749 118.264 50.8374 118.264 70.5499C118.264 90.2624 102.702 106.862 82.9891 106.862C63.2766 106.862 47.7141 91.2999 47.7141 71.5874C47.7141 51.8749 63.2766 35.2749 82.9891 35.2749Z" fill="url(#paint0_linear)"/>
<defs>
<linearGradient id="paint0_linear" x1="82.9839" y1="35.2749" x2="82.9839" y2="166" gradientUnits="userSpaceOnUse">
<stop stop-color="white"/>
<stop offset="1" stop-color="white" stop-opacity="0"/>
</linearGradient>
</defs>
</svg>
