<?xml version="1.0" encoding="utf-8"?>
<!-- Generator: Adobe Illustrator 24.0.0, SVG Export Plug-In . SVG Version: 6.00 Build 0)  -->
<svg version="1.1" id="图层_1" xmlns="http://www.w3.org/2000/svg" xmlns:xlink="http://www.w3.org/1999/xlink" x="0px" y="0px"
	 viewBox="0 0 100 100" style="enable-background:new 0 0 100 100;" xml:space="preserve">
<style type="text/css">
	.st0{fill:#C5C5C5;}
	.st1{fill:#898989;}
	.st2{fill:#DCDCDC;}
	.st3{fill:#22AC38;}
	.st4{fill:#605155;}
	.st5{fill:#FFFFFF;}
	.st6{fill:#DCEBF5;}
	.st7{fill:#C8DAE6;}
	.st8{fill:#EDF6FC;}
	.st9{fill:#A5BFD1;}
	.st10{fill:#086E96;}
	.st11{fill:#207A8A;}
	.st12{fill:#2BA3B8;}
	.st13{fill:#82C5E1;}
	.st14{fill:url(#SVGID_1_);}
	.st15{fill:url(#SVGID_2_);}
	.st16{fill:#467988;}
	.st17{fill:#B2E1EF;}
	.st18{fill:#990000;}
	.st19{fill:#FF6666;}
	.st20{fill:#FF3333;}
	.st21{fill:#E0D2C6;}
	.st22{fill:#BAA19D;}
	.st23{fill:#F2E8DF;}
	.st24{fill:#663F30;}
	.st25{fill:url(#SVGID_3_);}
	.st26{fill:url(#SVGID_4_);}
	.st27{fill:url(#SVGID_5_);}
	.st28{fill:url(#SVGID_6_);}
	.st29{fill:url(#SVGID_7_);}
	.st30{fill:url(#SVGID_8_);}
	.st31{opacity:0.3;enable-background:new    ;}
	.st32{fill:#16978E;}
	.st33{fill:#36A584;}
	.st34{fill:#7FC16F;}
</style>
<g>
	<image style="overflow:visible;" width="178" height="134" xlink:href="9DFF5D632554E599.png"  transform="matrix(1 0 0 1 -38 1)">
	</image>
</g>
<title>画板 1</title>
<g id="_1">
	<polygon class="st0" points="1.1,70.3 1.1,73 37.5,94.1 37.5,91.4 	"/>
	<polygon class="st1" points="37.5,91.4 37.5,94.1 98.2,59.1 98.2,56.4 	"/>
	<polygon class="st2" points="1.1,70.3 37.5,91.4 98.2,56.4 61.8,35.3 	"/>
	<polygon class="st3" points="8.9,69.2 39.4,86.9 90.4,57.5 59.9,39.8 	"/>
	<polygon class="st4" points="26.4,62 46,50.7 73.4,66.8 53.8,78.1 	"/>
	<path class="st5" d="M46,51.3l26.4,15.5L53.8,77.5L27.5,62L46,51.3 M46,50.1L25.4,62l28.4,16.7l20.6-11.9L46,50.1L46,50.1z"/>
	<polygon class="st5" points="42.1,63.1 60.3,73.8 67.4,69.7 49.2,59 	"/>
	<polygon class="st6" points="65.5,58.5 76.1,52.3 76.1,31.7 65.5,37.8 	"/>
	<polygon class="st7" points="65.5,58.5 50.4,49.7 50.4,29 65.5,37.8 	"/>
	<polygon class="st8" points="50.4,29 61,22.9 76.1,31.7 65.5,37.8 	"/>
	<polygon class="st9" points="74.2,31.7 73.7,31.9 65.5,36 52.8,29.3 52.3,29 61,24 	"/>
	<polygon class="st10" points="73.7,31.9 65.5,36.7 52.8,29.3 61,24.5 	"/>
	<polygon class="st6" points="60.3,28.8 63.9,30.9 66.2,29.5 62.6,27.4 	"/>
	<polygon class="st11" points="60.3,30.1 63.9,32.2 63.9,30.9 60.3,28.8 	"/>
	<polygon class="st12" points="66.2,30.9 63.9,32.2 63.9,30.9 66.2,29.5 	"/>
	<polygon class="st6" points="42.4,71.9 62.8,60 62.8,43.4 42.4,55.3 	"/>
	<polygon class="st7" points="42.4,71.9 25.8,62.3 25.8,45.7 42.4,55.3 	"/>
	<polygon class="st8" points="25.8,45.7 46.3,33.8 62.8,43.4 42.4,55.3 	"/>
	<polygon class="st9" points="60.7,43.4 60.2,43.7 42.4,53.4 28.4,46 28,45.7 46.3,35 	"/>
	<polygon class="st10" points="60.2,43.7 42.4,54.1 28.4,46 46.3,35.6 	"/>
	<polygon class="st13" points="53.5,56 58.9,52.8 58.9,62.1 53.5,65.2 	"/>
	<path class="st5" d="M58.7,53.2v8.8l-5,2.9v-8.8L58.7,53.2 M59.1,52.4l-5.9,3.4v9.8l5.9-3.4V52.4z"/>
	<polygon class="st13" points="47.6,59.4 53,56.2 53,65.5 47.6,68.6 	"/>
	<path class="st5" d="M52.8,56.6v8.7l-5,2.9v-8.7L52.8,56.6 M53.3,55.8l-5.9,3.4V69l5.9-3.4V55.8z"/>
	
		<linearGradient id="SVGID_1_" gradientUnits="userSpaceOnUse" x1="48.34" y1="35.2596" x2="49.24" y2="35.2596" gradientTransform="matrix(1 0 0 -1 0 100)">
		<stop  offset="0" style="stop-color:#E5E5E5"/>
		<stop  offset="1" style="stop-color:#6D6D6D"/>
	</linearGradient>
	<path class="st14" d="M48.8,72.8L48.8,72.8c-0.2,0-0.4-0.2-0.5-0.4L48.4,57c0-0.2,0.2-0.4,0.4-0.4l0,0c0.2,0,0.4,0.2,0.4,0.4
		l0.1,15.5C49.2,72.7,49,72.9,48.8,72.8z"/>
	
		<linearGradient id="SVGID_2_" gradientUnits="userSpaceOnUse" x1="63.19" y1="43.9698" x2="64.09" y2="43.9698" gradientTransform="matrix(1 0 0 -1 0 100)">
		<stop  offset="0" style="stop-color:#E5E5E5"/>
		<stop  offset="1" style="stop-color:#6D6D6D"/>
	</linearGradient>
	<path class="st15" d="M63.6,64.2L63.6,64.2c-0.2,0-0.4-0.2-0.5-0.4l0.1-15.5c0-0.2,0.2-0.4,0.4-0.4c0,0,0,0,0,0l0,0
		c0.2,0,0.4,0.2,0.4,0.4l0.1,15.5C64.1,64,63.9,64.2,63.6,64.2z"/>
	<polygon class="st10" points="61.5,46.1 43.8,56.4 50.7,60.4 68.4,50.1 	"/>
	<polygon class="st6" points="50.7,60.4 50.7,61.8 68.4,51.5 68.4,50.1 	"/>
	<polygon class="st9" points="61.3,46.3 61.3,47.1 66.8,50.3 66.8,49.5 	"/>
	<polygon class="st9" points="45.5,55.5 45.5,56.3 61.3,47.1 61.3,46.3 	"/>
	<polygon class="st6" points="50.7,59.6 50.7,60.4 68.4,50.2 68.4,49.4 	"/>
	<polygon class="st7" points="43.8,55.6 50.7,59.6 50.7,60.4 50.7,60.4 50.7,61.8 43.8,57.8 43.8,56.4 43.8,56.4 	"/>
	<path class="st8" d="M43.8,55.6l6.9,4l17.8-10.2l-6.9-4L43.8,55.6z M45.4,55.5l15.9-9.2l5.4,3.2l-15.9,9.2L45.4,55.5z"/>
	<g>
		<polygon class="st6" points="58.7,13 58.7,43.7 42.3,53.1 42.2,22.4 		"/>
		<polygon class="st7" points="42.2,22.4 42.3,53.1 30.3,46.2 30.2,15.5 		"/>
		<polygon class="st8" points="46.7,6 58.7,13 42.2,22.4 30.2,15.5 		"/>
	</g>
	<g>
		<polygon class="st6" points="55.9,11.9 56,13.4 42.9,21 42.8,19.5 		"/>
		<polygon class="st7" points="42.8,19.5 42.9,21 33.3,15.4 33.2,13.9 		"/>
		<polygon class="st8" points="46.3,6.4 55.9,11.9 42.8,19.5 33.2,13.9 		"/>
	</g>
	<polygon class="st6" points="39,13 42.6,15.1 44.9,13.8 41.3,11.7 	"/>
	<polygon class="st11" points="39,14.3 42.6,16.4 42.6,15.1 39,13 	"/>
	<polygon class="st12" points="44.9,15.1 42.6,16.4 42.6,15.1 44.9,13.8 	"/>
	<polygon class="st6" points="44.6,9.8 48.2,11.9 50.5,10.6 46.9,8.5 	"/>
	<polygon class="st11" points="44.6,11.1 48.2,13.2 48.2,11.9 44.6,9.8 	"/>
	<polygon class="st12" points="50.5,11.9 48.2,13.2 48.2,11.9 50.5,10.6 	"/>
	<polygon class="st13" points="53.6,20.9 53.6,17.7 51.1,19.1 51.1,22.4 	"/>
	<polygon class="st16" points="53.1,18 53.6,17.7 53.6,20.9 53.1,20.6 	"/>
	<polygon class="st17" points="53.1,20.6 51.1,21.8 51.1,22.4 53.6,20.9 	"/>
	<polygon class="st13" points="57.3,19.1 57.3,15.8 54.7,17.3 54.7,20.5 	"/>
	<polygon class="st16" points="56.8,16.1 57.3,15.8 57.3,19.1 56.8,18.8 	"/>
	<polygon class="st17" points="56.8,18.8 54.7,20 54.7,20.5 57.3,19.1 	"/>
	<polygon class="st13" points="50,23.1 50,19.8 47.4,21.3 47.5,24.5 	"/>
	<polygon class="st16" points="49.5,20.1 50,19.8 50,23.1 49.5,22.8 	"/>
	<polygon class="st17" points="49.5,22.8 47.4,24 47.5,24.5 50,23.1 	"/>
	<polygon class="st13" points="46.2,25.3 46.2,22 43.7,23.5 43.7,26.7 	"/>
	<polygon class="st16" points="45.7,22.3 46.2,22 46.2,25.3 45.7,25 	"/>
	<polygon class="st17" points="45.7,25 43.7,26.2 43.7,26.8 46.2,25.3 	"/>
	<polygon class="st13" points="53.6,25.5 53.6,22.2 51.1,23.7 51.1,27 	"/>
	<polygon class="st16" points="53.1,22.5 53.6,22.2 53.6,25.5 53.1,25.2 	"/>
	<polygon class="st17" points="53.1,25.2 51.1,26.4 51.1,27 53.6,25.5 	"/>
	<polygon class="st13" points="57.3,23.6 57.3,20.4 54.7,21.9 54.7,25.1 	"/>
	<polygon class="st16" points="56.8,20.7 57.3,20.4 57.3,23.6 56.8,23.3 	"/>
	<polygon class="st17" points="56.8,23.3 54.7,24.5 54.7,25.1 57.3,23.6 	"/>
	<polygon class="st13" points="50,27.6 50,24.4 47.4,25.9 47.5,29.1 	"/>
	<polygon class="st16" points="49.5,24.7 50,24.4 50,27.6 49.5,27.3 	"/>
	<polygon class="st17" points="49.5,27.3 47.4,28.5 47.5,29.1 50,27.6 	"/>
	<polygon class="st13" points="46.2,29.8 46.2,26.6 43.7,28.1 43.7,31.3 	"/>
	<polygon class="st16" points="45.7,26.9 46.2,26.6 46.2,29.8 45.7,29.5 	"/>
	<polygon class="st17" points="45.7,29.5 43.7,30.7 43.7,31.3 46.2,29.8 	"/>
	<polygon class="st13" points="53.6,30.1 53.6,26.8 51.1,28.3 51.1,31.6 	"/>
	<polygon class="st16" points="53.1,27.1 53.6,26.8 53.6,30.1 53.1,29.8 	"/>
	<polygon class="st17" points="53.1,29.8 51.1,31 51.1,31.6 53.6,30.1 	"/>
	<polygon class="st13" points="57.3,28.2 57.3,25 54.7,26.5 54.7,29.7 	"/>
	<polygon class="st16" points="56.8,25.3 57.3,25 57.3,28.2 56.8,27.9 	"/>
	<polygon class="st17" points="56.8,27.9 54.7,29.1 54.7,29.7 57.3,28.2 	"/>
	<polygon class="st13" points="50,32.2 50,29 47.4,30.5 47.5,33.7 	"/>
	<polygon class="st16" points="49.5,29.3 50,29 50,32.2 49.5,31.9 	"/>
	<polygon class="st17" points="49.5,31.9 47.4,33.1 47.5,33.7 50,32.2 	"/>
	<polygon class="st13" points="46.2,34.5 46.2,31.2 43.7,32.7 43.7,35.9 	"/>
	<polygon class="st16" points="45.7,31.5 46.2,31.2 46.2,34.5 45.7,34.2 	"/>
	<polygon class="st17" points="45.7,34.2 43.7,35.3 43.7,35.9 46.2,34.5 	"/>
	<polygon class="st13" points="53.6,34.7 53.6,31.4 51.1,32.9 51.1,36.1 	"/>
	<polygon class="st16" points="53.1,31.7 53.6,31.4 53.6,34.7 53.1,34.4 	"/>
	<polygon class="st17" points="53.1,34.4 51.1,35.6 51.1,36.2 53.6,34.7 	"/>
	<polygon class="st13" points="57.3,32.8 57.3,29.5 54.7,31 54.7,34.2 	"/>
	<polygon class="st16" points="56.8,29.8 57.3,29.5 57.3,32.8 56.8,32.5 	"/>
	<polygon class="st17" points="56.8,32.5 54.7,33.7 54.7,34.3 57.3,32.8 	"/>
	<polygon class="st13" points="50,36.8 50,33.5 47.4,35 47.5,38.2 	"/>
	<polygon class="st16" points="49.5,33.8 50,33.5 50,36.8 49.5,36.5 	"/>
	<polygon class="st17" points="49.5,36.5 47.4,37.7 47.5,38.3 50,36.8 	"/>
	<polygon class="st13" points="46.2,39 46.2,35.8 43.7,37.2 43.7,40.5 	"/>
	<polygon class="st16" points="45.7,36 46.2,35.8 46.2,39 45.7,38.7 	"/>
	<polygon class="st17" points="45.7,38.7 43.7,39.9 43.7,40.5 46.2,39 	"/>
	<polygon class="st13" points="53.6,39.3 53.6,36 51.1,37.5 51.1,40.7 	"/>
	<polygon class="st16" points="53.1,36.3 53.6,36 53.6,39.3 53.1,39 	"/>
	<polygon class="st17" points="53.1,39 51.1,40.1 51.1,40.7 53.6,39.3 	"/>
	<polygon class="st13" points="57.3,37.4 57.3,34.1 54.7,35.6 54.7,38.8 	"/>
	<polygon class="st16" points="56.8,34.4 57.3,34.1 57.3,37.4 56.8,37.1 	"/>
	<polygon class="st17" points="56.8,37.1 54.7,38.3 54.7,38.9 57.3,37.4 	"/>
	<polygon class="st13" points="50,41.4 50,38.1 47.4,39.6 47.5,42.8 	"/>
	<polygon class="st16" points="49.5,38.4 50,38.1 50,41.4 49.5,41.1 	"/>
	<polygon class="st17" points="49.5,41.1 47.4,42.3 47.5,42.9 50,41.4 	"/>
	<polygon class="st13" points="46.2,43.6 46.2,40.3 43.7,41.8 43.7,45 	"/>
	<polygon class="st16" points="45.7,40.6 46.2,40.3 46.2,43.6 45.7,43.3 	"/>
	<polygon class="st17" points="45.7,43.3 43.7,44.5 43.7,45.1 46.2,43.6 	"/>
	<polygon class="st13" points="53.6,43.8 53.6,40.6 51.1,42.1 51.1,45.3 	"/>
	<polygon class="st16" points="53.1,40.9 53.6,40.6 53.6,43.8 53.1,43.5 	"/>
	<polygon class="st17" points="53.1,43.5 51.1,44.7 51.1,45.3 53.6,43.8 	"/>
	<polygon class="st13" points="57.3,42 57.3,38.7 54.7,40.2 54.7,43.4 	"/>
	<polygon class="st16" points="56.8,39 57.3,38.7 57.3,42 56.8,41.7 	"/>
	<polygon class="st17" points="56.8,41.7 54.7,42.9 54.7,43.5 57.3,42 	"/>
	<polygon class="st13" points="50,46 50,42.7 47.4,44.2 47.5,47.4 	"/>
	<polygon class="st16" points="49.5,43 50,42.7 50,46 49.5,45.7 	"/>
	<polygon class="st17" points="49.5,45.7 47.4,46.9 47.5,47.5 50,46 	"/>
	<polygon class="st13" points="46.2,48.2 46.2,44.9 43.7,46.4 43.7,49.6 	"/>
	<polygon class="st16" points="45.7,45.2 46.2,44.9 46.2,48.2 45.7,47.9 	"/>
	<polygon class="st17" points="45.7,47.9 43.7,49.1 43.7,49.7 46.2,48.2 	"/>
	<polygon class="st6" points="30,79 40.6,72.8 40.6,35.2 30,41.4 	"/>
	<polygon class="st7" points="30,79 14.9,70.2 14.9,32.6 30,41.4 	"/>
	<polygon class="st8" points="14.9,32.6 25.5,26.5 40.6,35.2 30,41.4 	"/>
	<polygon class="st9" points="38.7,35.2 38.2,35.5 30,39.6 17.3,32.8 16.9,32.6 25.5,27.6 	"/>
	<polygon class="st10" points="38.2,35.5 30,40.3 17.3,32.8 25.5,28.1 	"/>
	<g>
		<polygon class="st18" points="35.1,49.9 34,49.2 34,46.7 35,47.3 		"/>
		<polygon class="st19" points="37.2,43.6 36.1,43 38.4,41.7 39.5,42.3 		"/>
		<polygon class="st18" points="32.8,48.6 31.7,48 31.7,45.5 32.8,46.1 		"/>
		<polygon class="st19" points="32.8,46.1 31.7,45.5 34,44.2 35,44.8 		"/>
		<polygon class="st18" points="35,44.8 34,44.2 34,41.6 35,42.2 		"/>
		<polygon class="st19" points="35,42.2 34,41.6 36.1,40.4 37.2,41 		"/>
		<polygon class="st20" points="37.2,41 37.2,43.6 39.5,42.3 39.5,44.7 37.2,46 37.2,48.6 35.1,49.9 35,47.3 32.8,48.6 32.8,46.1 
			35,44.8 35,42.2 		"/>
	</g>
	<polygon class="st13" points="16.5,40 16.5,36 28.5,43 28.5,47 	"/>
	<polygon class="st16" points="17.2,36.4 16.5,36 16.5,40 17.2,39.7 	"/>
	<polygon class="st17" points="17.2,39.7 28.5,46.3 28.5,47 16.5,40 	"/>
	<polygon class="st13" points="16.5,45.7 16.5,41.6 28.5,48.6 28.5,52.6 	"/>
	<polygon class="st16" points="17.2,42 16.5,41.6 16.5,45.7 17.2,45.3 	"/>
	<polygon class="st17" points="17.2,45.3 28.5,51.9 28.5,52.6 16.5,45.7 	"/>
	<polygon class="st13" points="16.5,51.3 16.5,47.3 28.5,54.2 28.5,58.2 	"/>
	<polygon class="st16" points="17.2,47.6 16.5,47.3 16.5,51.3 17.2,50.9 	"/>
	<polygon class="st17" points="17.2,50.9 28.5,57.5 28.5,58.3 16.5,51.3 	"/>
	<polygon class="st13" points="16.5,56.9 16.5,52.9 28.5,59.9 28.5,63.9 	"/>
	<polygon class="st16" points="17.2,53.3 16.5,52.9 16.5,56.9 17.2,56.6 	"/>
	<polygon class="st17" points="17.2,56.6 28.5,63.2 28.5,63.9 16.5,56.9 	"/>
	<polygon class="st13" points="16.5,62.6 16.5,58.5 28.5,65.5 28.5,69.5 	"/>
	<polygon class="st16" points="17.2,58.9 16.5,58.5 16.5,62.6 17.2,62.2 	"/>
	<polygon class="st17" points="17.2,62.2 28.5,68.8 28.5,69.5 16.5,62.6 	"/>
	<polygon class="st13" points="16.5,68.2 16.5,64.2 28.5,71.1 28.5,75.1 	"/>
	<polygon class="st16" points="17.2,64.5 16.5,64.2 16.5,68.2 17.2,67.8 	"/>
	<polygon class="st17" points="17.2,67.8 28.5,74.4 28.5,75.2 16.5,68.2 	"/>
	<polygon class="st21" points="30.8,79.9 30.8,79.1 45.5,74.4 45.5,75.2 34.1,81.8 	"/>
	<polygon class="st22" points="34.1,79.6 45.5,74.4 45.5,75.2 34.1,81.8 	"/>
	<polygon class="st23" points="30.8,79.1 42.2,72.5 45.5,74.4 34.1,81 	"/>
	<polygon class="st3" points="31.8,79 41.9,73.2 44.2,74.5 34.1,80.3 	"/>
	<path class="st24" d="M40.9,72.2V72H41c0.1-0.1,0.3-0.1,0.4,0h0.1l0.2,2.9c0,0.1-0.1,0.2-0.2,0.2c-0.2,0.1-0.5,0.1-0.7,0
		c-0.1,0-0.2-0.1-0.1-0.2L40.9,72.2z"/>
	
		<radialGradient id="SVGID_3_" cx="-470.25" cy="-9.12" r="5.12" gradientTransform="matrix(-1 0 0 -0.88 -427.81 62.37)" gradientUnits="userSpaceOnUse">
		<stop  offset="0" style="stop-color:#56B4D3"/>
		<stop  offset="1" style="stop-color:#348F50"/>
	</radialGradient>
	<path class="st25" d="M41.2,68.7c1.5,0.2,2.6,1.6,2.4,3.1c-0.2,1.5-1.6,2.6-3.1,2.4C39.1,74,38,72.9,38,71.4
		C38.1,69.8,39.5,68.6,41.2,68.7z"/>
	<path class="st24" d="M37.7,74v-0.1h0.1c0.1-0.1,0.3-0.1,0.4,0h0.1c0,0,0.2,2.9,0.2,2.9s0,0.2-0.1,0.2c-0.2,0.1-0.5,0.1-0.7,0
		c-0.1,0-0.1-0.1-0.1-0.2L37.7,74z"/>
	
		<radialGradient id="SVGID_4_" cx="-467.08" cy="-11.2" r="5.12" gradientTransform="matrix(1 0 0 -1 0 100)" gradientUnits="userSpaceOnUse">
		<stop  offset="0" style="stop-color:#56B4D3"/>
		<stop  offset="1" style="stop-color:#348F50"/>
	</radialGradient>
	<path class="st26" d="M38,70.5c1.5,0.2,2.6,1.6,2.4,3.1c-0.2,1.5-1.6,2.6-3.1,2.4c-1.4-0.2-2.4-1.4-2.4-2.8
		C34.9,71.6,36.4,70.4,38,70.5z"/>
	<path class="st24" d="M34.5,75.8v-0.1h0.1c0.1-0.1,0.3-0.1,0.4,0h0.1l0.2,2.9c0,0.1,0,0.2-0.1,0.2c-0.2,0.1-0.5,0.1-0.7,0
		c-0.1,0-0.2-0.1-0.1-0.2L34.5,75.8z"/>
	
		<radialGradient id="SVGID_5_" cx="-463.91" cy="-13.29" r="5.12" gradientTransform="matrix(1 0 0 -1 0 100)" gradientUnits="userSpaceOnUse">
		<stop  offset="0" style="stop-color:#56B4D3"/>
		<stop  offset="1" style="stop-color:#348F50"/>
	</radialGradient>
	<path class="st27" d="M34.8,72.3c1.5-0.2,2.9,0.9,3.1,2.5s-0.9,2.9-2.5,3.1c-0.2,0-0.4,0-0.7,0c-1.5,0.2-2.9-0.9-3.1-2.5
		s0.9-2.9,2.5-3.1C34.4,72.3,34.6,72.3,34.8,72.3z"/>
	<polygon class="st21" points="66.2,59.2 66.2,58.4 81,53.8 81,54.6 69.6,61.1 	"/>
	<polygon class="st22" points="69.6,59 81,53.8 81,54.6 69.6,61.1 	"/>
	<polygon class="st23" points="66.2,58.4 77.6,51.8 81,53.8 69.6,60.4 	"/>
	<polygon class="st3" points="67.3,58.3 77.3,52.5 79.6,53.8 69.6,59.6 	"/>
	<path class="st24" d="M76.3,51.5v-0.1h0.1c0.1,0,0.3,0,0.4,0h0.1l0.2,2.9c0,0.1-0.1,0.2-0.1,0.2c-0.2,0.1-0.5,0.1-0.7,0
		c-0.1,0-0.2-0.1-0.1-0.2L76.3,51.5z"/>
	
		<radialGradient id="SVGID_6_" cx="-505.69" cy="14.36" r="5.12" gradientTransform="matrix(1 0 0 -1 0 100)" gradientUnits="userSpaceOnUse">
		<stop  offset="0" style="stop-color:#56B4D3"/>
		<stop  offset="1" style="stop-color:#348F50"/>
	</radialGradient>
	<path class="st28" d="M76.6,48c1.5,0.2,2.6,1.6,2.4,3.2c-0.2,1.5-1.6,2.6-3.2,2.4c-1.4-0.2-2.4-1.4-2.4-2.8
		C73.6,49.1,75,47.9,76.6,48z"/>
	<path class="st24" d="M73.1,53.3v-0.1h0.1c0.1,0,0.3,0,0.4,0h0.1c0,0,0.2,2.9,0.2,2.9s0,0.2-0.1,0.2c-0.2,0.1-0.5,0.1-0.7,0
		c-0.1,0-0.1-0.1-0.1-0.2L73.1,53.3z"/>
	
		<radialGradient id="SVGID_7_" cx="-502.52" cy="12.28" r="5.12" gradientTransform="matrix(1 0 0 -1 0 100)" gradientUnits="userSpaceOnUse">
		<stop  offset="0" style="stop-color:#56B4D3"/>
		<stop  offset="1" style="stop-color:#348F50"/>
	</radialGradient>
	<path class="st29" d="M73.4,49.8c1.5,0.2,2.6,1.6,2.4,3.1s-1.6,2.6-3.1,2.4c-1.4-0.2-2.4-1.4-2.4-2.8C70.4,51,71.8,49.7,73.4,49.8z
		"/>
	<path class="st24" d="M70,55.2V55h0.1c0.1-0.1,0.3-0.1,0.4,0h0.1l0.2,3c0,0.1,0,0.2-0.1,0.2c-0.2,0.1-0.5,0.1-0.7,0
		c-0.1-0.1-0.2-0.2-0.1-0.2L70,55.2z"/>
	
		<radialGradient id="SVGID_8_" cx="-499.35" cy="10.2" r="5.12" gradientTransform="matrix(1 0 0 -1 0 100)" gradientUnits="userSpaceOnUse">
		<stop  offset="0" style="stop-color:#56B4D3"/>
		<stop  offset="1" style="stop-color:#348F50"/>
	</radialGradient>
	<path class="st30" d="M70.3,51.7c1.5,0.2,2.6,1.6,2.4,3.1s-1.6,2.6-3.1,2.4c-1.4-0.2-2.4-1.4-2.4-2.8
		C67.2,52.8,68.6,51.6,70.3,51.7z"/>
	<path class="st31" d="M15.4,75.5c-0.8,0.4-1.8,0.4-2.6,0c-0.4-0.1-0.7-0.6-0.5-1c0.1-0.2,0.3-0.4,0.5-0.5c0.8-0.4,1.8-0.4,2.6,0
		c0.4,0.1,0.7,0.6,0.5,1C15.8,75.2,15.6,75.4,15.4,75.5z"/>
	<path class="st24" d="M14.3,73L14.3,73L14.3,73c-0.1-0.1-0.2-0.1-0.3-0.1h-0.1l-0.1,1.8c0,0.1,0,0.1,0.1,0.1c0.1,0.1,0.3,0.1,0.4,0
		c0.1,0,0.1-0.1,0.1-0.1L14.3,73z"/>
	<path class="st32" d="M14.1,70c-0.8-0.2-1.7,0.3-1.9,1.1c-0.2,0.8,0.3,1.7,1.1,1.9c0.3,0.1,0.5,0.1,0.8,0c0.8,0.2,1.7-0.3,1.9-1.1
		c0.2-0.8-0.3-1.7-1.1-1.9C14.6,69.9,14.3,69.9,14.1,70z"/>
	<path class="st33" d="M14.1,68.7c-0.8-0.1-1.5,0.4-1.6,1.1s0.4,1.5,1.1,1.6c0.2,0,0.4,0,0.5,0c0.8,0.1,1.5-0.4,1.6-1.1
		s-0.4-1.5-1.1-1.6C14.4,68.6,14.3,68.6,14.1,68.7z"/>
	<path class="st34" d="M15.4,68.3l-1.4-3.2l-1.4,3.2l-0.1,0.1l0,0c-0.1,0.4,0,0.8,0.4,1.1c0.6,0.4,1.5,0.4,2.1,0
		C15.5,69.3,15.7,68.8,15.4,68.3z"/>
	<path class="st31" d="M21.2,78.8c-0.8,0.4-1.8,0.4-2.7,0c-0.4-0.2-0.6-0.6-0.5-1.1c0.1-0.2,0.3-0.4,0.5-0.5c0.8-0.4,1.8-0.4,2.7,0
		c0.4,0.1,0.7,0.6,0.5,1C21.6,78.5,21.4,78.7,21.2,78.8z"/>
	<path class="st24" d="M20,76.3L20,76.3L20,76.3c-0.1-0.1-0.2-0.1-0.2-0.1h-0.1L19.5,78c0,0,0,0.1,0.1,0.1c0.1,0.1,0.3,0.1,0.4,0
		c0.1,0,0.1-0.1,0.1-0.1L20,76.3z"/>
	<path class="st32" d="M19.8,73.3c-0.8-0.2-1.7,0.3-1.9,1.1c-0.2,0.8,0.3,1.7,1.1,1.9c0.3,0.1,0.5,0.1,0.8,0
		c0.8,0.2,1.7-0.3,1.9-1.1c0.2-0.8-0.3-1.7-1.1-1.9C20.4,73.2,20.1,73.2,19.8,73.3z"/>
	<path class="st33" d="M19.8,72c-0.8-0.1-1.5,0.4-1.6,1.1c-0.1,0.8,0.4,1.5,1.1,1.6c0.2,0,0.4,0,0.5,0c0.8,0.1,1.5-0.4,1.6-1.1
		c0.1-0.8-0.4-1.5-1.1-1.6C20.2,72,20,72,19.8,72z"/>
	<path class="st34" d="M21.2,71.6l-1.4-3.2l-1.4,3.2c0,0,0,0.1-0.1,0.1l0,0c-0.1,0.4,0,0.8,0.4,1.1c0.6,0.4,1.5,0.4,2.1,0
		C21.3,72.6,21.4,72,21.2,71.6z"/>
	<path class="st31" d="M26.9,82.1c-0.8,0.4-1.8,0.4-2.7,0c-0.4-0.2-0.6-0.6-0.5-1.1c0.1-0.2,0.3-0.4,0.5-0.5c0.8-0.4,1.8-0.4,2.7,0
		c0.4,0.2,0.6,0.6,0.5,1.1C27.3,81.8,27.2,82,26.9,82.1z"/>
	<path class="st24" d="M25.8,79.6L25.8,79.6L25.8,79.6c-0.1-0.1-0.2-0.1-0.3-0.1h-0.1l-0.1,1.8c0,0,0,0.1,0.1,0.1
		c0.1,0.1,0.3,0.1,0.4,0c0.1,0,0.1-0.1,0.1-0.1L25.8,79.6z"/>
	<path class="st32" d="M25.6,76.6c-0.8-0.2-1.7,0.3-1.9,1.1c-0.2,0.8,0.3,1.7,1.1,1.9c0.3,0.1,0.5,0.1,0.8,0
		c0.8,0.2,1.7-0.3,1.9-1.1c0.2-0.8-0.3-1.7-1.1-1.9C26.1,76.5,25.9,76.5,25.6,76.6z"/>
	<path class="st33" d="M25.6,75.3c-0.8-0.1-1.5,0.4-1.6,1.1c-0.1,0.8,0.4,1.5,1.1,1.6c0.2,0,0.4,0,0.5,0c0.8,0.1,1.5-0.4,1.6-1.1
		c0.1-0.8-0.4-1.5-1.1-1.6C26,75.2,25.8,75.2,25.6,75.3z"/>
	<path class="st34" d="M27,74.9l-1.4-3.2l-1.4,3.2c0,0,0,0.1,0,0.1l0,0c-0.1,0.4,0,0.9,0.4,1.1c0.6,0.4,1.5,0.4,2.1,0
		C27.1,75.9,27.2,75.3,27,74.9z"/>
</g>
</svg>
